<?xml version="1.0" encoding="utf-8"?>
<!DOCTYPE svg PUBLIC "-//W3C//DTD SVG 1.1//EN" "http://www.w3.org/Graphics/SVG/1.1/DTD/svg11.dtd">
<svg version="1.1" xmlns="http://www.w3.org/2000/svg" xmlns:xlink="http://www.w3.org/1999/xlink" x="0px" y="0px"
	width="16px" height="15.05px" viewBox="0 0.95 16 15.05" enable-background="new 0 0.95 16 15.05" xml:space="preserve">
<path fill="#1D1D1B" d="M14.999,5.001h-2.754c0.151-0.292,0.172-0.646-0.005-0.953l-1.5-2.598c-0.275-0.479-0.889-0.642-1.365-0.366
	C8.896,1.361,8.732,1.972,9.009,2.451l1.474,2.551H5.518l1.473-2.551c0.276-0.479,0.112-1.09-0.366-1.366
	c-0.479-0.276-1.09-0.112-1.366,0.366L3.76,4.048C3.583,4.355,3.603,4.709,3.754,5.001H1.001c-0.553,0-1,0.448-1,1
	c0,0.552,0.447,1,1,1v1V16h13.998V8.001v-1c0.552,0,1-0.448,1-1C15.999,5.449,15.551,5.001,14.999,5.001z M5,14H3.001v-4H5V14z
	M9,14H7v-4h2V14z M12.999,14H11v-4h1.999V14z"/>
</svg>
